# xmcd CD database file
# Generated: Sat Feb 23 10:47:24 2008 by KSCD
# 
# Track frame offsets:
#       150
#       16517
#       35682
#       53397
#       66367
#       78362
#       92970
#       107202
#       118977
#       134990
#       148612
#       164145
#       181207
#       195357
#       215480
#       226795
#       262577
#       276862
#       288025
#       302507
#
# Disc length: 4202 seconds
#
# Revision: 9
# Processed by: cddbd v1.5.2PL0 Copyright (c) Steve Scherf et al.
# Submitted via: Kscd 1.3.3
#
DISCID=1a106814
DTITLE=Various Artist - A Century of Blues [CD1]
DYEAR=2001
DGENRE=Blues
TTITLE0=Albert Ammons - Boogie Woogie Stomp
TTITLE1=Meade Lux Lewis - Honky Tonk Train Blues
TTITLE2=James P. Johnson and his Orchestra - Blue Note Boogie
TTITLE3=John Lee Hooker - John Lee's Original Boogie
TTITLE4=Lightnin' Hopkins - Shotgun Blues
TTITLE5=Muddy Waters - Rock Me
TTITLE6=Memphis Slim - Boogie Woogie Memphis
TTITLE7=T-Bone Walker - Evil Hearted Woman
TTITLE8=Lowell Fulson - Double Trouble Blues
TTITLE9=Pee Wee Crayton - When It Rains It Pours
TTITLE10=Sonny Terry and Brownie McGhee - Key to the Highway
TTITLE11=Muddy Waters - Walkin' Thru the Park
TTITLE12=Big Joe Williams - Shady Grove
TTITLE13=Mississippi Fred McDowell - Good Morning Little School Girl
TTITLE14=Son House - I Want to Go Home on the Morning Train
TTITLE15=iams/ Ain't Nothin' Like WhiskeyLightnin' Hopkins, Sonny Terry, Brownie McGhee and Big Joe Will
TTITLE16=John Lee Hooker - Whistle Done Blown
TTITLE17=T-Bone Walker - Hustle Is On
TTITLE18=George 'Harmonica' Smith - Juke
TTITLE19=Freddie King - Walking by Myself
EXTD=
EXTT0=
EXTT1=
EXTT2=
EXTT3=
EXTT4=
EXTT5=
EXTT6=
EXTT7=
EXTT8=
EXTT9=
EXTT10=
EXTT11=
EXTT12=
EXTT13=
EXTT14=
EXTT15=
EXTT16=
EXTT17=
EXTT18=
EXTT19=
PLAYORDER=
